# xmcd CD database file
#
# Track frame offsets:
#	150
#	14008
#	26777
#	39501
#	48687
#	63766
#	77360
#	89102
#	101340
#	111627
#	125327
#	139695
#	150544
#	163021
#	175745
#	189033
#	201630
#
# Disc length: 2869 seconds
#
# Revision: 0
# Processed by: cddbd v1.5.2PL0 Copyright (c) Steve Scherf et al.
# Submitted via: ACXtractor (MTCDDB.DLL V2003.12.21)
#
DISCID=e60b3311
DTITLE=Slim Dusty - The Streets of Sydney
DYEAR=1977
DGENRE=Country
TTITLE0=The Streets of Sydney
TTITLE1=Jesus Take a Hold and Lead Us
TTITLE2=Don't Try Your big time on Me
TTITLE3=Foolin' Around
TTITLE4=I Broke a Promise
TTITLE5=I Heard the Bluebird's Sing
TTITLE6=Life is Like a Mighty River
TTITLE7=Were Just a Travelling Country Band
TTITLE8=God's Singer of songs is Going Home
TTITLE9=Little did they Know she Men't Disaster
TTITLE10=Sadness and I Wander Home
TTITLE11=Blow out the T.V.
TTITLE12=If those Lips Could Only Speak
TTITLE13=The Rose in Her Hair
TTITLE14=Good Time Country Hall
TTITLE15=The Two rats of Trabrook
TTITLE16=The Boomerang Tree
EXTD=ID3G:   2 YEAR: 1977
EXTT0=
EXTT1=
EXTT2=
EXTT3=
EXTT4=
EXTT5=
EXTT6=
EXTT7=
EXTT8=
EXTT9=
EXTT10=
EXTT11=
EXTT12=
EXTT13=
EXTT14=
EXTT15=
EXTT16=
PLAYORDER=
